<?xml version="1.0" standalone="no"?>
<!DOCTYPE svg PUBLIC "-//W3C//DTD SVG 20010904//EN"
 "http://www.w3.org/TR/2001/REC-SVG-20010904/DTD/svg10.dtd">
<svg version="1.0" xmlns="http://www.w3.org/2000/svg"
 width="338.000000pt" height="338.000000pt" viewBox="0 0 338.000000 338.000000"
 preserveAspectRatio="xMidYMid meet">
<metadata>
Created by potrace 1.14, written by Peter Selinger 2001-2017
</metadata>
<g transform="translate(0.000000,338.000000) scale(0.100000,-0.100000)"
fill="#000000" stroke="none">
<path d="M376 2067 c-8 -33 -71 -93 -125 -118 -163 -78 -239 -178 -245 -324
-6 -132 66 -249 194 -316 63 -32 205 -34 265 -2 40 21 62 22 144 8 l44 -7 -7
28 c-19 82 -18 105 4 174 38 119 16 236 -61 325 -34 38 -113 95 -133 95 -16 0
-56 -79 -49 -96 3 -8 22 -23 43 -34 44 -23 99 -100 102 -144 7 -137 -48 -222
-163 -252 -42 -11 -57 -11 -102 3 -28 8 -73 17 -99 20 -46 5 -47 6 -41 33 3
16 -2 51 -11 78 -25 73 -18 136 18 191 34 49 86 89 127 98 38 7 99 60 115 99
14 34 19 120 8 148 -9 23 -21 20 -28 -7z"/>
<path d="M2099 2038 c-1 -34 -1 -660 0 -680 1 -14 10 -18 46 -18 41 0 45 2 45
25 l0 24 36 -24 c20 -14 44 -26 53 -26 114 -8 168 12 216 80 27 39 30 50 30
120 0 68 -3 83 -28 119 -60 92 -190 111 -286 43 l-26 -19 0 187 0 186 -42 3
c-39 3 -43 1 -44 -20z m308 -414 c26 -29 33 -46 33 -79 0 -50 -32 -103 -74
-123 -42 -21 -112 -7 -148 28 -24 25 -28 36 -28 88 0 66 13 90 65 117 20 11
46 14 75 11 37 -3 51 -11 77 -42z"/>
<path d="M1446 1894 c-21 -21 -20 -40 5 -65 32 -32 79 -12 84 35 5 42 -57 63
-89 30z"/>
<path d="M3190 1890 c-5 -3 -8 -38 -8 -78 0 -40 -2 -76 -6 -80 -4 -4 -20 -7
-34 -7 -24 -1 -27 -5 -27 -35 0 -30 3 -35 25 -36 14 -1 30 -2 35 -2 6 -1 10
-60 10 -154 l0 -153 43 -3 42 -3 1 43 c1 24 2 95 3 158 l1 115 49 0 c49 0 49
1 52 33 1 17 -1 33 -4 33 -6 2 -32 4 -90 8 -8 1 -12 17 -11 49 3 116 3 118
-36 118 -20 0 -40 -3 -45 -6z"/>
<path d="M1652 1762 c-7 -2 -12 -19 -12 -37 0 -54 33 -72 123 -71 l75 1 -76
-110 c-42 -60 -89 -128 -104 -149 -15 -21 -28 -43 -28 -47 0 -4 79 -7 176 -7
l175 0 -3 37 c-3 40 3 38 -135 40 l-72 1 104 150 c58 82 105 152 105 155 0 3
-61 5 -135 5 -108 0 -135 3 -135 14 0 14 -36 26 -58 18z"/>
<path d="M2767 1735 c-99 -25 -163 -111 -154 -208 5 -67 18 -96 56 -134 87
-88 261 -73 328 28 31 47 42 136 24 190 -33 98 -145 152 -254 124z m114 -88
c41 -28 59 -60 59 -110 0 -76 -50 -127 -125 -127 -50 0 -104 51 -112 105 -7
54 17 109 59 135 43 26 77 25 119 -3z"/>
<path d="M773 1698 c67 -160 161 -368 167 -368 3 0 17 26 30 58 13 31 37 86
53 122 l29 65 42 -90 c24 -49 51 -107 61 -128 10 -21 19 -36 20 -35 4 4 134
304 156 361 l19 47 -43 0 -43 0 -43 -107 c-24 -60 -46 -111 -50 -115 -4 -4
-29 44 -56 107 l-50 115 -37 0 c-43 0 -43 -1 -23 -40 14 -27 13 -33 -22 -111
-20 -45 -39 -75 -41 -68 -5 14 -19 47 -67 157 l-28 62 -43 0 -44 0 13 -32z"/>
<path d="M1439 1723 c-3 -24 -4 -360 -1 -370 2 -6 23 -11 47 -11 l44 0 -1 194
0 194 -44 0 c-24 0 -44 -3 -45 -7z"/>
<path d="M237 1652 c-20 -22 -22 -63 -5 -80 29 -29 68 -2 68 48 0 17 -4 20
-20 15 -18 -6 -25 3 -21 28 2 11 -5 8 -22 -11z"/>
<path d="M388 1650 c-26 -38 -10 -90 28 -90 24 0 42 23 39 50 -1 8 -3 22 -3
30 -2 11 -5 11 -14 2 -18 -18 -26 -15 -30 11 l-3 22 -17 -25z"/>
</g>
</svg>
